<svg width="683" height="502" viewBox="0 0 683 502" fill="none" xmlns="http://www.w3.org/2000/svg">
<path d="M100.358 441.9C100.358 467.926 79.6133 489.02 54.0138 489.02C28.4203 489.02 7.66968 467.926 7.66968 441.9C7.66968 415.879 28.4195 394.78 54.0138 394.78C79.6125 394.78 100.358 415.879 100.358 441.9Z" stroke="black" stroke-width="14.9333" stroke-linejoin="round"/>
<path d="M434.043 248.707H276.467C267.196 248.707 225.487 248.707 239.368 295.827C247.733 324.218 267.196 352.374 276.467 390.064H146.703C123.531 390.064 109.625 399.491 109.625 418.34V465.46C109.625 479.595 123.531 493.731 137.433 493.731H369.153C387.69 493.731 406.231 474.882 387.69 437.185C366.919 395.538 304.273 295.826 304.273 295.826L498.921 276.982" stroke="black" stroke-width="14.9333" stroke-linecap="round" stroke-linejoin="round"/>
<path d="M424.77 474.888L517.461 456.039L675.037 465.466" stroke="black" stroke-width="14.9333" stroke-linecap="round" stroke-linejoin="round"/>
<path d="M396.964 399.497L675.03 427.768" stroke="black" stroke-width="14.9333" stroke-linecap="round" stroke-linejoin="round"/>
<path d="M308.909 229.861C308.909 229.861 322.815 163.893 332.081 154.463C348.212 138.067 442.61 102.265 461.845 97.9216C481.079 93.5779 489.652 107.344 498.923 116.77C506.98 126.015 538.839 169.667 545.267 182.739C551.694 195.807 554.537 201.583 545.267 211.01C537.631 218.677 489.652 258.13 489.652 258.13" stroke="black" stroke-width="14.9333" stroke-linecap="round" stroke-linejoin="round"/>
<path d="M341.352 229.861L350.623 182.741L369.159 229.861" stroke="black" stroke-width="14.9333" stroke-linecap="round" stroke-linejoin="round"/>
<path d="M452.575 248.707L517.456 192.166L480.383 154.468V201.588" stroke="black" stroke-width="14.9333" stroke-linecap="round" stroke-linejoin="round"/>
<path d="M447.946 55.5207C447.946 81.5412 427.196 102.641 401.602 102.641C376.003 102.641 355.258 81.5412 355.258 55.5207C355.258 29.4948 376.003 8.40076 401.602 8.40076C427.196 8.40076 447.946 29.4948 447.946 55.5207Z" stroke="black" stroke-width="14.9333" stroke-linejoin="round"/>
<path d="M381 305.252V380.643" stroke="black" stroke-width="14.9333" stroke-linecap="round" stroke-linejoin="round"/>
<path d="M498.921 295.829L517.458 352.376V390.068" stroke="black" stroke-width="14.9333" stroke-linecap="round" stroke-linejoin="round"/>
<path d="M443.309 386.049L452.58 342.945L461.845 385.356" stroke="black" stroke-width="14.9333" stroke-linecap="round" stroke-linejoin="round"/>
</svg>
